<svg width="826" height="733" viewBox="0 0 826 733" fill="none" xmlns="http://www.w3.org/2000/svg">
<rect width="485.131" height="486.757" transform="matrix(-0.744885 -0.667193 0.761137 -0.648592 455.512 733)" fill="#F8F8FF"/>
<rect width="485.131" height="486.757" transform="matrix(-0.744885 -0.667193 0.761137 -0.648592 455.512 733)" fill="#253439"/>
<rect width="485.131" height="486.757" transform="matrix(-0.744885 -0.667193 0.761137 -0.648592 455.512 733)" fill="#253439"/>
<rect width="485.131" height="486.757" transform="matrix(-0.744885 -0.667193 0.761137 -0.648592 455.512 733)" fill="#253439"/>
<rect width="485.131" height="486.757" transform="matrix(-0.744885 -0.667193 0.761137 -0.648592 454.367 685.985)" fill="#F8F8FF"/>
<rect width="485.131" height="486.757" transform="matrix(-0.744885 -0.667193 0.761137 -0.648592 454.367 685.985)" fill="#253439"/>
<rect width="485.131" height="486.757" transform="matrix(-0.744885 -0.667193 0.761137 -0.648592 454.367 685.985)" fill="#253439"/>
<rect width="485.131" height="486.757" transform="matrix(-0.744885 -0.667193 0.761137 -0.648592 454.367 685.985)" fill="#F8F8FF"/>
<rect width="485.131" height="486.757" transform="matrix(-0.744885 -0.667193 0.761137 -0.648592 454.839 639.382)" fill="#253439"/>
<rect width="338.684" height="339.819" transform="matrix(-0.744885 -0.667193 0.761137 -0.648592 456.217 536.316)" fill="#F8F8FF"/>
<rect width="310.686" height="311.728" transform="matrix(-0.744885 -0.667193 0.761137 -0.648591 456.101 518.094)" fill="#35484F"/>
<rect width="57.2534" height="57.9785" transform="matrix(-0.744885 -0.667193 0.761137 -0.648592 459.682 291.461)" fill="#F8F8FF"/>
<rect width="29.6884" height="138.989" transform="matrix(-0.744885 -0.667193 0.761137 -0.648592 377.33 243.586)" fill="#F8F8FF"/>
<rect width="29.6884" height="177.67" transform="matrix(-0.744885 0.667193 0.761137 0.648592 460.904 133.631)" fill="#F8F8FF"/>
<rect width="29.6884" height="132.867" transform="matrix(0.744885 0.667193 -0.761137 0.648591 572.876 231.663)" fill="#F8F8FF"/>
<rect x="355.205" y="223.66" width="36.64" height="237.077" fill="#F8F8FF"/>
<rect width="29.8193" height="99.675" transform="matrix(0.766149 -0.642664 0.739637 0.673006 471.995 319.849)" fill="#F8F8FF"/>
<rect width="78.2981" height="74.4579" transform="matrix(-0.744885 -0.667193 0.761137 -0.648591 335.356 528.259)" fill="#253439"/>
<path d="M81.3722 540.265L76.0706 476.149L0.829465 468.123C0.829465 468.123 53 451 60.7511 417.061C68.5022 383.123 120.673 366 120.673 366L201.215 438.142C177.476 458.372 151.5 452.76 140.5 489.88C129.5 527 104.434 520.613 81.3722 540.265Z" fill="#5E757D"/>
</svg>
