<svg width="882" height="626" viewBox="0 0 882 626" fill="none" xmlns="http://www.w3.org/2000/svg">
<g filter="url(#filter0_f_101_21)">
<path d="M725.031 166.645C878.606 508.524 417.485 223.017 423.234 531.483C229.589 512.636 169.279 495.688 124.245 327.779C95.1544 219.316 190.66 158.499 307.957 101.674C456.462 188.333 614.213 -47.4039 725.031 166.645Z" fill="url(#paint0_linear_101_21)"/>
</g>
<path d="M767.808 290.834C839.569 293.783 727.308 638.834 595.808 479.334C488.308 290.834 165.308 519.834 244.308 275.834C328.808 105.334 322.308 335.334 513.808 127C785.308 147.334 475.808 278.834 767.808 290.834Z" fill="url(#paint1_linear_101_21)"/>
<path d="M303.695 293.463C303.695 312.018 295.779 322.594 279.945 325.191L304.994 379H283.935L259.257 325.841H217.602V379H198.583V245.963H271.41C292.934 245.963 303.695 256.756 303.695 278.341V293.463ZM217.602 306.822H270.39C275.461 306.822 279.11 305.709 281.337 303.482C283.563 301.256 284.677 297.607 284.677 292.535V279.269C284.677 274.197 283.563 270.548 281.337 268.321C279.11 266.095 275.461 264.981 270.39 264.981H217.602V306.822ZM394.428 245.963L445.731 379H426.713L414.931 348.385H354.906L343.124 379H324.105L375.409 245.963H394.428ZM362.143 329.366H407.602L384.965 270.733L362.143 329.366ZM468.554 245.963H565.502V264.981H487.572V303.019H554.091V322.037H487.572V379H468.554V245.963ZM592.128 245.963H689.076V264.981H611.146V303.019H677.665V322.037H611.146V359.981H689.076V379H592.128V245.963Z" fill="white"/>
<defs>
<filter id="filter0_f_101_21" x="114.974" y="69.9253" width="645.394" height="465.558" filterUnits="userSpaceOnUse" color-interpolation-filters="sRGB">
<feFlood flood-opacity="0" result="BackgroundImageFix"/>
<feBlend mode="normal" in="SourceGraphic" in2="BackgroundImageFix" result="shape"/>
<feGaussianBlur stdDeviation="2" result="effect1_foregroundBlur_101_21"/>
</filter>
<linearGradient id="paint0_linear_101_21" x1="364.93" y1="86.3933" x2="480.207" y2="516.203" gradientUnits="userSpaceOnUse">
<stop stop-color="#737373"/>
<stop offset="1" stop-color="#737373" stop-opacity="0"/>
</linearGradient>
<linearGradient id="paint1_linear_101_21" x1="473.309" y1="149.334" x2="473.309" y2="428.334" gradientUnits="userSpaceOnUse">
<stop stop-color="#253439"/>
<stop offset="1" stop-color="#737373"/>
</linearGradient>
</defs>
</svg>
